<svg width="150" height="150" viewBox="0 0 150 150" fill="none" xmlns="http://www.w3.org/2000/svg">
<rect width="150" height="150" fill="#252422"/>
<path d="M61.4583 54.1667C69.7917 59.375 96.875 139.583 72.9167 139.583C39.5495 139.583 12.5 112.534 12.5 79.1667C12.5 45.7995 39.5495 18.75 72.9167 18.75C107.292 21.875 61.4583 20.7995 61.4583 54.1667Z" fill="#953529"/>
<mask id="mask0_7_79" style="mask-type:alpha" maskUnits="userSpaceOnUse" x="12" y="18" width="122" height="122">
<circle cx="72.9167" cy="79.1667" r="60.4167" fill="#D9D9D9"/>
</mask>
<g mask="url(#mask0_7_79)">
<path d="M69.837 18.75H97.9167L78.125 66.6667H110.417L81.25 139.583H52.0833L72.9167 85.4167H37.5L69.837 18.75Z" fill="#252422"/>
</g>
<path d="M139.583 72.9167C139.583 106.284 112.534 133.333 79.1667 133.333C45.7995 133.333 98.9584 105.242 98.9584 71.875C63.5417 69.7917 72.9167 30.2083 79.1667 12.5C112.534 12.5 139.583 39.5495 139.583 72.9167Z" fill="#953529"/>
<mask id="mask1_7_79" style="mask-type:alpha" maskUnits="userSpaceOnUse" x="18" y="12" width="122" height="122">
<circle cx="79.1667" cy="72.9167" r="60.4167" fill="#D9D9D9"/>
</mask>
<g mask="url(#mask1_7_79)">
<path d="M76.087 12.5H104.167L84.375 60.4167H116.667L87.5 133.333H58.3333L79.1667 79.1667H43.75L76.087 12.5Z" fill="#252422"/>
</g>
</svg>
