<?xml version="1.0" encoding="UTF-8" standalone="no"?>
<!DOCTYPE svg PUBLIC "-//W3C//DTD SVG 1.1//EN"
 "http://www.w3.org/Graphics/SVG/1.1/DTD/svg11.dtd">
<!-- Generated by graphviz version 2.43.0 (0)
 -->
<!-- Title: packages Pages: 1 -->
<svg width="819pt" height="548pt"
 viewBox="0.00 0.00 818.65 548.00" xmlns="http://www.w3.org/2000/svg" xmlns:xlink="http://www.w3.org/1999/xlink">
<g id="graph0" class="graph" transform="scale(1 1) rotate(0) translate(4 544)">
<title>packages</title>
<polygon fill="white" stroke="transparent" points="-4,4 -4,-544 814.65,-544 814.65,4 -4,4"/>
<!-- src.agent -->
<g id="node1" class="node">
<title>src.agent</title>
<polygon fill="none" stroke="black" points="247.65,-36 164.65,-36 164.65,0 247.65,0 247.65,-36"/>
<text text-anchor="middle" x="206.15" y="-14.3" font-family="Times,serif" font-size="14.00">src.agent</text>
</g>
<!-- src.agent.agent -->
<g id="node2" class="node">
<title>src.agent.agent</title>
<polygon fill="none" stroke="black" points="270.15,-108 142.15,-108 142.15,-72 270.15,-72 270.15,-108"/>
<text text-anchor="middle" x="206.15" y="-86.3" font-family="Times,serif" font-size="14.00">src.agent.agent</text>
</g>
<!-- src.agent&#45;&gt;src.agent.agent -->
<g id="edge1" class="edge">
<title>src.agent&#45;&gt;src.agent.agent</title>
<path fill="none" stroke="black" d="M206.15,-36.3C206.15,-44.02 206.15,-53.29 206.15,-61.89"/>
<polygon fill="black" stroke="black" points="206.15,-71.9 201.65,-61.9 206.15,-66.9 206.15,-61.9 206.15,-61.9 206.15,-61.9 206.15,-66.9 210.65,-61.9 206.15,-71.9 206.15,-71.9"/>
</g>
<!-- src.agent.llm -->
<g id="node7" class="node">
<title>src.agent.llm</title>
<polygon fill="none" stroke="black" points="428.15,-180 318.15,-180 318.15,-144 428.15,-144 428.15,-180"/>
<text text-anchor="middle" x="373.15" y="-158.3" font-family="Times,serif" font-size="14.00">src.agent.llm</text>
</g>
<!-- src.agent.agent&#45;&gt;src.agent.llm -->
<g id="edge2" class="edge">
<title>src.agent.agent&#45;&gt;src.agent.llm</title>
<path fill="none" stroke="black" d="M247,-108.12C269.93,-117.74 298.73,-129.81 323.02,-139.99"/>
<polygon fill="black" stroke="black" points="332.43,-143.93 321.47,-144.22 327.82,-142 323.21,-140.07 323.21,-140.07 323.21,-140.07 327.82,-142 324.95,-135.92 332.43,-143.93 332.43,-143.93"/>
</g>
<!-- src.agent.memory -->
<g id="node9" class="node">
<title>src.agent.memory</title>
<polygon fill="none" stroke="black" points="380.15,-252 234.15,-252 234.15,-216 380.15,-216 380.15,-252"/>
<text text-anchor="middle" x="307.15" y="-230.3" font-family="Times,serif" font-size="14.00">src.agent.memory</text>
</g>
<!-- src.agent.agent&#45;&gt;src.agent.memory -->
<g id="edge3" class="edge">
<title>src.agent.agent&#45;&gt;src.agent.memory</title>
<path fill="none" stroke="black" d="M218.33,-108.13C235.93,-132.86 268.57,-178.76 289,-207.49"/>
<polygon fill="black" stroke="black" points="294.92,-215.81 285.46,-210.27 292.03,-211.74 289.13,-207.66 289.13,-207.66 289.13,-207.66 292.03,-211.74 292.8,-205.05 294.92,-215.81 294.92,-215.81"/>
</g>
<!-- src.agent.plan -->
<g id="node11" class="node">
<title>src.agent.plan</title>
<polygon fill="none" stroke="black" points="280.65,-396 161.65,-396 161.65,-360 280.65,-360 280.65,-396"/>
<text text-anchor="middle" x="221.15" y="-374.3" font-family="Times,serif" font-size="14.00">src.agent.plan</text>
</g>
<!-- src.agent.agent&#45;&gt;src.agent.plan -->
<g id="edge4" class="edge">
<title>src.agent.agent&#45;&gt;src.agent.plan</title>
<path fill="none" stroke="black" d="M207.04,-108.03C209.54,-155.71 216.63,-290.82 219.7,-349.37"/>
<polygon fill="black" stroke="black" points="220.24,-359.69 215.22,-349.94 219.98,-354.7 219.72,-349.71 219.72,-349.71 219.72,-349.71 219.98,-354.7 224.21,-349.47 220.24,-359.69 220.24,-359.69"/>
</g>
<!-- src.agent.prompts -->
<g id="node12" class="node">
<title>src.agent.prompts</title>
<polygon fill="none" stroke="black" points="178.15,-180 30.15,-180 30.15,-144 178.15,-144 178.15,-180"/>
<text text-anchor="middle" x="104.15" y="-158.3" font-family="Times,serif" font-size="14.00">src.agent.prompts</text>
</g>
<!-- src.agent.agent&#45;&gt;src.agent.prompts -->
<g id="edge5" class="edge">
<title>src.agent.agent&#45;&gt;src.agent.prompts</title>
<path fill="none" stroke="black" d="M181.2,-108.12C168.11,-117.11 151.89,-128.24 137.71,-137.97"/>
<polygon fill="black" stroke="black" points="129.2,-143.81 134.9,-134.44 133.32,-140.98 137.44,-138.15 137.44,-138.15 137.44,-138.15 133.32,-140.98 139.99,-141.86 129.2,-143.81 129.2,-143.81"/>
</g>
<!-- src.agent.tools -->
<g id="node13" class="node">
<title>src.agent.tools</title>
<polygon fill="none" stroke="black" points="282.15,-468 160.15,-468 160.15,-432 282.15,-432 282.15,-468"/>
<text text-anchor="middle" x="221.15" y="-446.3" font-family="Times,serif" font-size="14.00">src.agent.tools</text>
</g>
<!-- src.agent.agent&#45;&gt;src.agent.tools -->
<g id="edge6" class="edge">
<title>src.agent.agent&#45;&gt;src.agent.tools</title>
<path fill="none" stroke="black" d="M141.86,-93.23C101.69,-98.09 51.93,-111.03 21.15,-144 -6.45,-173.57 2.15,-192.55 2.15,-233 2.15,-233 2.15,-233 2.15,-307 2.15,-378.98 86.47,-416.3 150.47,-434.27"/>
<polygon fill="black" stroke="black" points="160.15,-436.88 149.32,-438.62 155.32,-435.58 150.49,-434.28 150.49,-434.28 150.49,-434.28 155.32,-435.58 151.67,-429.93 160.15,-436.88 160.15,-436.88"/>
</g>
<!-- src.agent.knowledge -->
<g id="node3" class="node">
<title>src.agent.knowledge</title>
<polygon fill="none" stroke="black" points="777.15,-108 613.15,-108 613.15,-72 777.15,-72 777.15,-108"/>
<text text-anchor="middle" x="695.15" y="-86.3" font-family="Times,serif" font-size="14.00">src.agent.knowledge</text>
</g>
<!-- src.agent.knowledge.collections -->
<g id="node4" class="node">
<title>src.agent.knowledge.collections</title>
<polygon fill="none" stroke="black" points="810.65,-324 565.65,-324 565.65,-288 810.65,-288 810.65,-324"/>
<text text-anchor="middle" x="688.15" y="-302.3" font-family="Times,serif" font-size="14.00">src.agent.knowledge.collections</text>
</g>
<!-- src.agent.knowledge&#45;&gt;src.agent.knowledge.collections -->
<g id="edge7" class="edge">
<title>src.agent.knowledge&#45;&gt;src.agent.knowledge.collections</title>
<path fill="none" stroke="black" d="M719.14,-108.21C757.22,-137.71 824.12,-199.83 792.15,-252 783.9,-265.47 771.03,-275.64 757.13,-283.29"/>
<polygon fill="black" stroke="black" points="747.88,-287.96 754.78,-279.43 752.34,-285.7 756.81,-283.45 756.81,-283.45 756.81,-283.45 752.34,-285.7 758.83,-287.47 747.88,-287.96 747.88,-287.96"/>
</g>
<!-- src.agent.knowledge.nlp -->
<g id="node5" class="node">
<title>src.agent.knowledge.nlp</title>
<polygon fill="none" stroke="black" points="783.65,-252 592.65,-252 592.65,-216 783.65,-216 783.65,-252"/>
<text text-anchor="middle" x="688.15" y="-230.3" font-family="Times,serif" font-size="14.00">src.agent.knowledge.nlp</text>
</g>
<!-- src.agent.knowledge&#45;&gt;src.agent.knowledge.nlp -->
<g id="edge8" class="edge">
<title>src.agent.knowledge&#45;&gt;src.agent.knowledge.nlp</title>
<path fill="none" stroke="black" d="M694.31,-108.13C693.11,-132.33 690.92,-176.79 689.5,-205.61"/>
<polygon fill="black" stroke="black" points="689,-215.81 685,-205.6 689.24,-210.82 689.49,-205.82 689.49,-205.82 689.49,-205.82 689.24,-210.82 693.98,-206.04 689,-215.81 689,-215.81"/>
</g>
<!-- src.agent.knowledge.store -->
<g id="node6" class="node">
<title>src.agent.knowledge.store</title>
<polygon fill="none" stroke="black" points="667.15,-180 461.15,-180 461.15,-144 667.15,-144 667.15,-180"/>
<text text-anchor="middle" x="564.15" y="-158.3" font-family="Times,serif" font-size="14.00">src.agent.knowledge.store</text>
</g>
<!-- src.agent.knowledge&#45;&gt;src.agent.knowledge.store -->
<g id="edge9" class="edge">
<title>src.agent.knowledge&#45;&gt;src.agent.knowledge.store</title>
<path fill="none" stroke="black" d="M663.1,-108.12C645.66,-117.45 623.89,-129.08 605.21,-139.06"/>
<polygon fill="black" stroke="black" points="596.32,-143.81 603.02,-135.13 600.73,-141.45 605.14,-139.1 605.14,-139.1 605.14,-139.1 600.73,-141.45 607.26,-143.07 596.32,-143.81 596.32,-143.81"/>
</g>
<!-- src.agent.knowledge.nlp&#45;&gt;src.agent.knowledge.collections -->
<g id="edge10" class="edge">
<title>src.agent.knowledge.nlp&#45;&gt;src.agent.knowledge.collections</title>
<path fill="none" stroke="black" d="M688.15,-252.3C688.15,-260.02 688.15,-269.29 688.15,-277.89"/>
<polygon fill="black" stroke="black" points="688.15,-287.9 683.65,-277.9 688.15,-282.9 688.15,-277.9 688.15,-277.9 688.15,-277.9 688.15,-282.9 692.65,-277.9 688.15,-287.9 688.15,-287.9"/>
</g>
<!-- src.agent.knowledge.store&#45;&gt;src.agent.knowledge.collections -->
<g id="edge11" class="edge">
<title>src.agent.knowledge.store&#45;&gt;src.agent.knowledge.collections</title>
<path fill="none" stroke="black" d="M563.6,-180.21C563.86,-199.6 567.04,-231.1 583.15,-252 593.48,-265.39 608.11,-275.67 623.18,-283.44"/>
<polygon fill="black" stroke="black" points="632.59,-287.96 621.63,-287.68 628.08,-285.79 623.58,-283.63 623.58,-283.63 623.58,-283.63 628.08,-285.79 625.52,-279.57 632.59,-287.96 632.59,-287.96"/>
</g>
<!-- src.agent.knowledge.store&#45;&gt;src.agent.knowledge.nlp -->
<g id="edge12" class="edge">
<title>src.agent.knowledge.store&#45;&gt;src.agent.knowledge.nlp</title>
<path fill="none" stroke="black" d="M594.48,-180.12C610.85,-189.36 631.23,-200.87 648.8,-210.79"/>
<polygon fill="black" stroke="black" points="657.7,-215.81 646.78,-214.81 653.35,-213.35 648.99,-210.89 648.99,-210.89 648.99,-210.89 653.35,-213.35 651.2,-206.98 657.7,-215.81 657.7,-215.81"/>
</g>
<!-- src.agent.llm.llm -->
<g id="node8" class="node">
<title>src.agent.llm.llm</title>
<polygon fill="none" stroke="black" points="535.65,-252 398.65,-252 398.65,-216 535.65,-216 535.65,-252"/>
<text text-anchor="middle" x="467.15" y="-230.3" font-family="Times,serif" font-size="14.00">src.agent.llm.llm</text>
</g>
<!-- src.agent.knowledge.store&#45;&gt;src.agent.llm.llm -->
<g id="edge13" class="edge">
<title>src.agent.knowledge.store&#45;&gt;src.agent.llm.llm</title>
<path fill="none" stroke="black" d="M540.17,-180.3C527.84,-189.2 512.63,-200.18 499.3,-209.8"/>
<polygon fill="black" stroke="black" points="490.85,-215.9 496.33,-206.39 494.91,-212.97 498.96,-210.04 498.96,-210.04 498.96,-210.04 494.91,-212.97 501.59,-213.69 490.85,-215.9 490.85,-215.9"/>
</g>
<!-- src.agent.llm&#45;&gt;src.agent.llm.llm -->
<g id="edge14" class="edge">
<title>src.agent.llm&#45;&gt;src.agent.llm.llm</title>
<path fill="none" stroke="black" d="M396.39,-180.3C408.34,-189.2 423.07,-200.18 436,-209.8"/>
<polygon fill="black" stroke="black" points="444.18,-215.9 433.47,-213.53 440.17,-212.91 436.16,-209.92 436.16,-209.92 436.16,-209.92 440.17,-212.91 438.85,-206.31 444.18,-215.9 444.18,-215.9"/>
</g>
<!-- src.agent.memory.base -->
<g id="node10" class="node">
<title>src.agent.memory.base</title>
<polygon fill="none" stroke="black" points="416.15,-324 234.15,-324 234.15,-288 416.15,-288 416.15,-324"/>
<text text-anchor="middle" x="325.15" y="-302.3" font-family="Times,serif" font-size="14.00">src.agent.memory.base</text>
</g>
<!-- src.agent.llm.llm&#45;&gt;src.agent.memory.base -->
<g id="edge15" class="edge">
<title>src.agent.llm.llm&#45;&gt;src.agent.memory.base</title>
<path fill="none" stroke="black" d="M432.41,-252.12C413.33,-261.53 389.47,-273.29 369.1,-283.33"/>
<polygon fill="black" stroke="black" points="360.02,-287.81 367,-279.35 364.51,-285.6 368.99,-283.39 368.99,-283.39 368.99,-283.39 364.51,-285.6 370.98,-287.42 360.02,-287.81 360.02,-287.81"/>
</g>
<!-- src.agent.memory&#45;&gt;src.agent.memory.base -->
<g id="edge16" class="edge">
<title>src.agent.memory&#45;&gt;src.agent.memory.base</title>
<path fill="none" stroke="black" d="M311.6,-252.3C313.61,-260.1 316.02,-269.49 318.25,-278.17"/>
<polygon fill="black" stroke="black" points="320.75,-287.9 313.9,-279.33 319.51,-283.05 318.26,-278.21 318.26,-278.21 318.26,-278.21 319.51,-283.05 322.62,-277.09 320.75,-287.9 320.75,-287.9"/>
</g>
<!-- src.agent.memory.base&#45;&gt;src.agent.plan -->
<g id="edge17" class="edge">
<title>src.agent.memory.base&#45;&gt;src.agent.plan</title>
<path fill="none" stroke="black" d="M299.71,-324.12C286.36,-333.11 269.83,-344.24 255.37,-353.97"/>
<polygon fill="black" stroke="black" points="246.69,-359.81 252.47,-350.49 250.84,-357.02 254.99,-354.23 254.99,-354.23 254.99,-354.23 250.84,-357.02 257.5,-357.96 246.69,-359.81 246.69,-359.81"/>
</g>
<!-- src.agent.memory.base&#45;&gt;src.agent.tools -->
<g id="edge18" class="edge">
<title>src.agent.memory.base&#45;&gt;src.agent.tools</title>
<path fill="none" stroke="black" d="M321.11,-324.08C316.01,-343.05 305.82,-373.92 289.15,-396 280.6,-407.33 269.05,-417.54 257.9,-425.9"/>
<polygon fill="black" stroke="black" points="249.51,-431.92 255.01,-422.44 253.57,-429.01 257.63,-426.09 257.63,-426.09 257.63,-426.09 253.57,-429.01 260.26,-429.75 249.51,-431.92 249.51,-431.92"/>
</g>
<!-- src.agent.plan&#45;&gt;src.agent.tools -->
<g id="edge19" class="edge">
<title>src.agent.plan&#45;&gt;src.agent.tools</title>
<path fill="none" stroke="black" d="M221.15,-396.3C221.15,-404.02 221.15,-413.29 221.15,-421.89"/>
<polygon fill="black" stroke="black" points="221.15,-431.9 216.65,-421.9 221.15,-426.9 221.15,-421.9 221.15,-421.9 221.15,-421.9 221.15,-426.9 225.65,-421.9 221.15,-431.9 221.15,-431.9"/>
</g>
<!-- src.agent.tools.base -->
<g id="node14" class="node">
<title>src.agent.tools.base</title>
<polygon fill="none" stroke="black" points="301.15,-540 141.15,-540 141.15,-504 301.15,-504 301.15,-540"/>
<text text-anchor="middle" x="221.15" y="-518.3" font-family="Times,serif" font-size="14.00">src.agent.tools.base</text>
</g>
<!-- src.agent.tools&#45;&gt;src.agent.tools.base -->
<g id="edge20" class="edge">
<title>src.agent.tools&#45;&gt;src.agent.tools.base</title>
<path fill="none" stroke="black" d="M221.15,-468.3C221.15,-476.02 221.15,-485.29 221.15,-493.89"/>
<polygon fill="black" stroke="black" points="221.15,-503.9 216.65,-493.9 221.15,-498.9 221.15,-493.9 221.15,-493.9 221.15,-493.9 221.15,-498.9 225.65,-493.9 221.15,-503.9 221.15,-503.9"/>
</g>
<!-- src.agent.tools.search -->
<g id="node15" class="node">
<title>src.agent.tools.search</title>
<polygon fill="none" stroke="black" points="440.15,-36 266.15,-36 266.15,0 440.15,0 440.15,-36"/>
<text text-anchor="middle" x="353.15" y="-14.3" font-family="Times,serif" font-size="14.00">src.agent.tools.search</text>
</g>
<!-- src.agent.tools.search.exploit_db -->
<g id="node16" class="node">
<title>src.agent.tools.search.exploit_db</title>
<polygon fill="none" stroke="black" points="710.15,-36 458.15,-36 458.15,0 710.15,0 710.15,-36"/>
<text text-anchor="middle" x="584.15" y="-14.3" font-family="Times,serif" font-size="14.00">src.agent.tools.search.exploit_db</text>
</g>
</g>
</svg>
