<?xml version="1.0" encoding="UTF-8" standalone="no"?>
<!DOCTYPE svg PUBLIC "-//W3C//DTD SVG 1.1//EN"
 "http://www.w3.org/Graphics/SVG/1.1/DTD/svg11.dtd">
<!-- Generated by graphviz version 2.43.0 (0)
 -->
<!-- Title: classes Pages: 1 -->
<svg width="3061pt" height="996pt"
 viewBox="0.00 0.00 3060.50 996.00" xmlns="http://www.w3.org/2000/svg" xmlns:xlink="http://www.w3.org/1999/xlink">
<g id="graph0" class="graph" transform="scale(1 1) rotate(0) translate(4 992)">
<title>classes</title>
<polygon fill="white" stroke="transparent" points="-4,4 -4,-992 3056.5,-992 3056.5,4 -4,4"/>
<!-- src.agent.agent.Agent -->
<g id="node1" class="node">
<title>src.agent.agent.Agent</title>
<polygon fill="none" stroke="black" points="179,-663.5 179,-987.5 505,-987.5 505,-663.5 179,-663.5"/>
<text text-anchor="start" x="320.5" y="-972.3" font-family="Times,serif" font-size="14.00">Agent</text>
<polyline fill="none" stroke="black" points="179,-964.5 505,-964.5 "/>
<text text-anchor="start" x="219" y="-949.3" font-family="Times,serif" font-size="14.00">llm</text>
<text text-anchor="start" x="219" y="-934.3" font-family="Times,serif" font-size="14.00">mem</text>
<text text-anchor="start" x="219" y="-919.3" font-family="Times,serif" font-size="14.00">model</text>
<text text-anchor="start" x="219" y="-904.3" font-family="Times,serif" font-size="14.00">system_plan_con</text>
<text text-anchor="start" x="219" y="-889.3" font-family="Times,serif" font-size="14.00">system_plan_gen</text>
<text text-anchor="start" x="219" y="-874.3" font-family="Times,serif" font-size="14.00">tool_registry : ToolRegistry | None</text>
<text text-anchor="start" x="219" y="-859.3" font-family="Times,serif" font-size="14.00">tools : list</text>
<text text-anchor="start" x="219" y="-844.3" font-family="Times,serif" font-size="14.00">user_plan_con</text>
<text text-anchor="start" x="219" y="-829.3" font-family="Times,serif" font-size="14.00">user_plan_gen</text>
<polyline fill="none" stroke="black" points="179,-821.5 505,-821.5 "/>
<text text-anchor="start" x="187" y="-806.3" font-family="Times,serif" font-size="14.00">delete_session(sid: int)</text>
<text text-anchor="start" x="187" y="-791.3" font-family="Times,serif" font-size="14.00">execute_plan(sid)</text>
<text text-anchor="start" x="187" y="-776.3" font-family="Times,serif" font-size="14.00">extract_plan(plan_nl)</text>
<text text-anchor="start" x="187" y="-761.3" font-family="Times,serif" font-size="14.00">get_session(sid: int)</text>
<text text-anchor="start" x="187" y="-746.3" font-family="Times,serif" font-size="14.00">get_sessions()</text>
<text text-anchor="start" x="187" y="-731.3" font-family="Times,serif" font-size="14.00">invoke_tools(tool_response)</text>
<text text-anchor="start" x="187" y="-716.3" font-family="Times,serif" font-size="14.00">new_session(sid: int)</text>
<text text-anchor="start" x="187" y="-701.3" font-family="Times,serif" font-size="14.00">query(sid: int, user_in: str)</text>
<text text-anchor="start" x="187" y="-686.3" font-family="Times,serif" font-size="14.00">rename_session(sid: int, session_name: str)</text>
<text text-anchor="start" x="187" y="-671.3" font-family="Times,serif" font-size="14.00">save_session(sid: int)</text>
</g>
<!-- src.agent.knowledge.collections.Collection -->
<g id="node2" class="node">
<title>src.agent.knowledge.collections.Collection</title>
<polygon fill="none" stroke="black" points="351.5,-0.5 351.5,-189.5 650.5,-189.5 650.5,-0.5 351.5,-0.5"/>
<text text-anchor="start" x="465" y="-174.3" font-family="Times,serif" font-size="14.00">Collection</text>
<polyline fill="none" stroke="black" points="351.5,-166.5 650.5,-166.5 "/>
<text text-anchor="start" x="400" y="-151.3" font-family="Times,serif" font-size="14.00">collection_id : int</text>
<text text-anchor="start" x="400" y="-136.3" font-family="Times,serif" font-size="14.00">documents : List[Document]</text>
<text text-anchor="start" x="400" y="-121.3" font-family="Times,serif" font-size="14.00">size : Optional[int]</text>
<text text-anchor="start" x="400" y="-106.3" font-family="Times,serif" font-size="14.00">title : str</text>
<text text-anchor="start" x="400" y="-91.3" font-family="Times,serif" font-size="14.00">topics : List[Topic]</text>
<polyline fill="none" stroke="black" points="351.5,-83.5 650.5,-83.5 "/>
<text text-anchor="start" x="359.5" y="-68.3" font-family="Times,serif" font-size="14.00">document_names(): list</text>
<text text-anchor="start" x="359.5" y="-53.3" font-family="Times,serif" font-size="14.00">from_dict(collection_title: str, data: list)</text>
<text text-anchor="start" x="359.5" y="-38.3" font-family="Times,serif" font-size="14.00">from_json(path: str)</text>
<text text-anchor="start" x="359.5" y="-23.3" font-family="Times,serif" font-size="14.00">to_dict()</text>
<text text-anchor="start" x="359.5" y="-8.3" font-family="Times,serif" font-size="14.00">to_json_metadata(path: str)</text>
</g>
<!-- src.agent.knowledge.collections.Document -->
<g id="node3" class="node">
<title>src.agent.knowledge.collections.Document</title>
<polygon fill="none" stroke="black" points="669,-45.5 669,-144.5 843,-144.5 843,-45.5 669,-45.5"/>
<text text-anchor="start" x="719.5" y="-129.3" font-family="Times,serif" font-size="14.00">Document</text>
<polyline fill="none" stroke="black" points="669,-121.5 843,-121.5 "/>
<text text-anchor="start" x="677" y="-106.3" font-family="Times,serif" font-size="14.00">content : str</text>
<text text-anchor="start" x="677" y="-91.3" font-family="Times,serif" font-size="14.00">name : str</text>
<text text-anchor="start" x="677" y="-76.3" font-family="Times,serif" font-size="14.00">topic : Optional[Topic]</text>
<polyline fill="none" stroke="black" points="669,-68.5 843,-68.5 "/>
<text text-anchor="start" x="753.5" y="-53.3" font-family="Times,serif" font-size="14.00"> </text>
</g>
<!-- src.agent.tools.search.exploit_db.ExploitDB -->
<g id="node4" class="node">
<title>src.agent.tools.search.exploit_db.ExploitDB</title>
<polygon fill="none" stroke="black" points="861.5,-44.6 861.5,-145.4 1088.5,-145.4 1088.5,-44.6 861.5,-44.6"/>
<text text-anchor="start" x="938.5" y="-130.2" font-family="Times,serif" font-size="14.00">ExploitDB</text>
<polyline fill="none" stroke="black" points="861.5,-122.4 1088.5,-122.4 "/>
<polyline fill="none" stroke="black" points="861.5,-97.6 1088.5,-97.6 "/>
<text text-anchor="start" x="869.5" y="-82.4" font-family="Times,serif" font-size="14.00">close()</text>
<text text-anchor="start" x="869.5" y="-67.4" font-family="Times,serif" font-size="14.00">init()</text>
<text text-anchor="start" x="869.5" y="-52.4" font-family="Times,serif" font-size="14.00">search(query: str): list[Tuple]</text>
</g>
<!-- src.agent.llm.llm.LLM -->
<g id="node5" class="node">
<title>src.agent.llm.llm.LLM</title>
<polygon fill="none" stroke="black" points="4.5,-452.5 4.5,-581.5 333.5,-581.5 333.5,-452.5 4.5,-452.5"/>
<text text-anchor="start" x="152.5" y="-566.3" font-family="Times,serif" font-size="14.00">LLM</text>
<polyline fill="none" stroke="black" points="4.5,-558.5 333.5,-558.5 "/>
<text text-anchor="start" x="83.5" y="-543.3" font-family="Times,serif" font-size="14.00">api_key : str | None</text>
<text text-anchor="start" x="83.5" y="-528.3" font-family="Times,serif" font-size="14.00">inference_endpoint : str</text>
<text text-anchor="start" x="83.5" y="-513.3" font-family="Times,serif" font-size="14.00">model : str</text>
<text text-anchor="start" x="83.5" y="-498.3" font-family="Times,serif" font-size="14.00">provider</text>
<polyline fill="none" stroke="black" points="4.5,-490.5 333.5,-490.5 "/>
<text text-anchor="start" x="12.5" y="-475.3" font-family="Times,serif" font-size="14.00">query(messages: list): Tuple[str, int]</text>
<text text-anchor="start" x="12.5" y="-460.3" font-family="Times,serif" font-size="14.00">tool_query(messages: list, tools: list | None)</text>
</g>
<!-- src.agent.llm.llm.LLM&#45;&gt;src.agent.agent.Agent -->
<g id="edge7" class="edge">
<title>src.agent.llm.llm.LLM&#45;&gt;src.agent.agent.Agent</title>
<path fill="none" stroke="black" d="M204.85,-581.51C216.81,-602.7 230.76,-627.42 245.1,-652.83"/>
<polygon fill="none" stroke="black" points="245.15,-652.92 251.58,-656.17 251.05,-663.37 244.62,-660.11 245.15,-652.92"/>
<text text-anchor="middle" x="252.5" y="-633.8" font-family="Times,serif" font-size="14.00" fill="green">llm</text>
</g>
<!-- src.agent.memory.base.Memory -->
<g id="node6" class="node">
<title>src.agent.memory.base.Memory</title>
<polygon fill="none" stroke="black" points="352,-422.5 352,-611.5 678,-611.5 678,-422.5 352,-422.5"/>
<text text-anchor="start" x="485" y="-596.3" font-family="Times,serif" font-size="14.00">Memory</text>
<polyline fill="none" stroke="black" points="352,-588.5 678,-588.5 "/>
<text text-anchor="start" x="418.5" y="-573.3" font-family="Times,serif" font-size="14.00">sessions : Dict[int:Session]</text>
<polyline fill="none" stroke="black" points="352,-565.5 678,-565.5 "/>
<text text-anchor="start" x="360" y="-550.3" font-family="Times,serif" font-size="14.00">delete_session(sid: int)</text>
<text text-anchor="start" x="360" y="-535.3" font-family="Times,serif" font-size="14.00">get_plan(sid)</text>
<text text-anchor="start" x="360" y="-520.3" font-family="Times,serif" font-size="14.00">get_session(sid: int): Session</text>
<text text-anchor="start" x="360" y="-505.3" font-family="Times,serif" font-size="14.00">get_sessions(): dict</text>
<text text-anchor="start" x="360" y="-490.3" font-family="Times,serif" font-size="14.00">load_sessions()</text>
<text text-anchor="start" x="360" y="-475.3" font-family="Times,serif" font-size="14.00">rename_session(sid: int, session_name: str)</text>
<text text-anchor="start" x="360" y="-460.3" font-family="Times,serif" font-size="14.00">save_session(sid: int)</text>
<text text-anchor="start" x="360" y="-445.3" font-family="Times,serif" font-size="14.00">store_message(sid: int, message: Message)</text>
<text text-anchor="start" x="360" y="-430.3" font-family="Times,serif" font-size="14.00">store_plan(sid: int, plan: Plan)</text>
</g>
<!-- src.agent.memory.base.Memory&#45;&gt;src.agent.agent.Agent -->
<g id="edge3" class="edge">
<title>src.agent.memory.base.Memory&#45;&gt;src.agent.agent.Agent</title>
<path fill="none" stroke="black" d="M462.15,-611.63C454.75,-624.74 446.96,-638.55 439.04,-652.57"/>
<polygon fill="black" stroke="black" points="438.87,-652.87 439.41,-660.06 432.97,-663.32 432.44,-656.13 438.87,-652.87"/>
<text text-anchor="middle" x="468" y="-633.8" font-family="Times,serif" font-size="14.00" fill="green">mem</text>
</g>
<!-- src.agent.memory.base.Message -->
<g id="node7" class="node">
<title>src.agent.memory.base.Message</title>
<polygon fill="none" stroke="black" points="1115,-264 1115,-348 1219,-348 1219,-264 1115,-264"/>
<text text-anchor="start" x="1135" y="-332.8" font-family="Times,serif" font-size="14.00">Message</text>
<polyline fill="none" stroke="black" points="1115,-325 1219,-325 "/>
<text text-anchor="start" x="1123" y="-309.8" font-family="Times,serif" font-size="14.00">content : str</text>
<text text-anchor="start" x="1123" y="-294.8" font-family="Times,serif" font-size="14.00">role</text>
<polyline fill="none" stroke="black" points="1115,-287 1219,-287 "/>
<text text-anchor="start" x="1164.5" y="-271.8" font-family="Times,serif" font-size="14.00"> </text>
</g>
<!-- src.agent.llm.llm.Ollama -->
<g id="node8" class="node">
<title>src.agent.llm.llm.Ollama</title>
<polygon fill="none" stroke="black" points="4.5,-53 4.5,-137 333.5,-137 333.5,-53 4.5,-53"/>
<text text-anchor="start" x="143.5" y="-121.8" font-family="Times,serif" font-size="14.00">Ollama</text>
<polyline fill="none" stroke="black" points="4.5,-114 333.5,-114 "/>
<text text-anchor="start" x="95" y="-98.8" font-family="Times,serif" font-size="14.00">client : Client | None</text>
<polyline fill="none" stroke="black" points="4.5,-91 333.5,-91 "/>
<text text-anchor="start" x="12.5" y="-75.8" font-family="Times,serif" font-size="14.00">query(messages: list): Tuple[str, int]</text>
<text text-anchor="start" x="12.5" y="-60.8" font-family="Times,serif" font-size="14.00">tool_query(messages: list, tools: list | None)</text>
</g>
<!-- src.agent.llm.llm.Provider -->
<g id="node10" class="node">
<title>src.agent.llm.llm.Provider</title>
<polygon fill="none" stroke="black" points="0,-243 0,-369 338,-369 338,-243 0,-243"/>
<text text-anchor="start" x="138" y="-353.8" font-family="Times,serif" font-size="14.00">Provider</text>
<polyline fill="none" stroke="black" points="0,-346 338,-346 "/>
<text text-anchor="start" x="83.5" y="-330.8" font-family="Times,serif" font-size="14.00">api_key : str | None</text>
<text text-anchor="start" x="83.5" y="-315.8" font-family="Times,serif" font-size="14.00">inference_endpoint : str</text>
<text text-anchor="start" x="83.5" y="-300.8" font-family="Times,serif" font-size="14.00">model : str</text>
<polyline fill="none" stroke="black" points="0,-293 338,-293 "/>
<text text-anchor="start" x="8" y="-278.8" font-family="Times,serif" font-style="italic" font-size="14.00">query</text>
<text text-anchor="start" x="50" y="-278.8" font-family="Times,serif" font-size="14.00">(messages: list): Tuple[str, Tuple]</text>
<text text-anchor="start" x="8" y="-264.8" font-family="Times,serif" font-style="italic" font-size="14.00">tool_query</text>
<text text-anchor="start" x="84" y="-264.8" font-family="Times,serif" font-size="14.00">(messages: list, tools: list | None)</text>
<text text-anchor="start" x="8" y="-250.8" font-family="Times,serif" font-size="14.00">verify_messages_format(messages: list[dict])</text>
</g>
<!-- src.agent.llm.llm.Ollama&#45;&gt;src.agent.llm.llm.Provider -->
<g id="edge1" class="edge">
<title>src.agent.llm.llm.Ollama&#45;&gt;src.agent.llm.llm.Provider</title>
<path fill="none" stroke="black" d="M169,-137.29C169,-164.45 169,-200.73 169,-232.6"/>
<polygon fill="none" stroke="black" points="165.5,-232.78 169,-242.78 172.5,-232.78 165.5,-232.78"/>
</g>
<!-- src.agent.plan.Plan -->
<g id="node9" class="node">
<title>src.agent.plan.Plan</title>
<polygon fill="none" stroke="black" points="1245,-53 1245,-137 1387,-137 1387,-53 1245,-53"/>
<text text-anchor="start" x="1300" y="-121.8" font-family="Times,serif" font-size="14.00">Plan</text>
<polyline fill="none" stroke="black" points="1245,-114 1387,-114 "/>
<text text-anchor="start" x="1257.5" y="-98.8" font-family="Times,serif" font-size="14.00">tasks : list[Task]</text>
<polyline fill="none" stroke="black" points="1245,-91 1387,-91 "/>
<text text-anchor="start" x="1253" y="-75.8" font-family="Times,serif" font-size="14.00">execute()</text>
<text text-anchor="start" x="1253" y="-60.8" font-family="Times,serif" font-size="14.00">plan_to_dict_list()</text>
</g>
<!-- src.agent.llm.llm.Provider&#45;&gt;src.agent.llm.llm.LLM -->
<g id="edge2" class="edge">
<title>src.agent.llm.llm.Provider&#45;&gt;src.agent.llm.llm.LLM</title>
<path fill="none" stroke="black" d="M169,-369.14C169,-391.48 169,-416.92 169,-440.29"/>
<polygon fill="black" stroke="black" points="169,-440.29 173,-446.29 169,-452.29 165,-446.29 169,-440.29"/>
<text text-anchor="middle" x="199.5" y="-392.8" font-family="Times,serif" font-size="14.00" fill="green">provider</text>
</g>
<!-- src.agent.llm.llm.ProviderError -->
<g id="node11" class="node">
<title>src.agent.llm.llm.ProviderError</title>
<polygon fill="none" stroke="black" points="1405.5,-59.6 1405.5,-130.4 1522.5,-130.4 1522.5,-59.6 1405.5,-59.6"/>
<text text-anchor="start" x="1413.5" y="-115.2" font-family="Times,serif" font-size="14.00" fill="red">ProviderError</text>
<polyline fill="none" stroke="black" points="1405.5,-107.4 1522.5,-107.4 "/>
<polyline fill="none" stroke="black" points="1405.5,-82.6 1522.5,-82.6 "/>
<text text-anchor="start" x="1461.5" y="-67.4" font-family="Times,serif" font-size="14.00" fill="red"> </text>
</g>
<!-- src.agent.memory.base.Role -->
<g id="node12" class="node">
<title>src.agent.memory.base.Role</title>
<polygon fill="none" stroke="black" points="1107,-60.5 1107,-129.5 1227,-129.5 1227,-60.5 1107,-60.5"/>
<text text-anchor="start" x="1151" y="-114.3" font-family="Times,serif" font-size="14.00">Role</text>
<polyline fill="none" stroke="black" points="1107,-106.5 1227,-106.5 "/>
<text text-anchor="start" x="1147" y="-91.3" font-family="Times,serif" font-size="14.00">name</text>
<polyline fill="none" stroke="black" points="1107,-83.5 1227,-83.5 "/>
<text text-anchor="start" x="1115" y="-68.3" font-family="Times,serif" font-size="14.00">from_str(item)</text>
</g>
<!-- src.agent.memory.base.Role&#45;&gt;src.agent.memory.base.Message -->
<g id="edge4" class="edge">
<title>src.agent.memory.base.Role&#45;&gt;src.agent.memory.base.Message</title>
<path fill="none" stroke="black" d="M1167,-129.58C1167,-162.59 1167,-213.46 1167,-251.94"/>
<polygon fill="black" stroke="black" points="1167,-251.96 1171,-257.96 1167,-263.96 1163,-257.96 1167,-251.96"/>
<text text-anchor="middle" x="1181" y="-211.8" font-family="Times,serif" font-size="14.00" fill="green">role</text>
</g>
<!-- src.agent.memory.base.Session -->
<g id="node13" class="node">
<title>src.agent.memory.base.Session</title>
<polygon fill="none" stroke="black" points="1540.5,-8 1540.5,-182 1797.5,-182 1797.5,-8 1540.5,-8"/>
<text text-anchor="start" x="1641.5" y="-166.8" font-family="Times,serif" font-size="14.00">Session</text>
<polyline fill="none" stroke="black" points="1540.5,-159 1797.5,-159 "/>
<text text-anchor="start" x="1577" y="-143.8" font-family="Times,serif" font-size="14.00">message_dict</text>
<text text-anchor="start" x="1577" y="-128.8" font-family="Times,serif" font-size="14.00">messages : List[Message]</text>
<text text-anchor="start" x="1577" y="-113.8" font-family="Times,serif" font-size="14.00">name : str</text>
<text text-anchor="start" x="1577" y="-98.8" font-family="Times,serif" font-size="14.00">plans</text>
<text text-anchor="start" x="1577" y="-83.8" font-family="Times,serif" font-size="14.00">tokens</text>
<polyline fill="none" stroke="black" points="1540.5,-76 1797.5,-76 "/>
<text text-anchor="start" x="1548.5" y="-60.8" font-family="Times,serif" font-size="14.00">add_message(message: Message)</text>
<text text-anchor="start" x="1548.5" y="-45.8" font-family="Times,serif" font-size="14.00">add_plan(plan: Plan)</text>
<text text-anchor="start" x="1548.5" y="-30.8" font-family="Times,serif" font-size="14.00">from_json(path: str)</text>
<text text-anchor="start" x="1548.5" y="-15.8" font-family="Times,serif" font-size="14.00">plans_to_dict_list()</text>
</g>
<!-- src.agent.knowledge.store.Store -->
<g id="node14" class="node">
<title>src.agent.knowledge.store.Store</title>
<polygon fill="none" stroke="black" points="1816,-8 1816,-182 2450,-182 2450,-8 1816,-8"/>
<text text-anchor="start" x="2113" y="-166.8" font-family="Times,serif" font-size="14.00">Store</text>
<polyline fill="none" stroke="black" points="1816,-159 2450,-159 "/>
<text text-anchor="start" x="2071.5" y="-143.8" font-family="Times,serif" font-size="14.00">collections</text>
<text text-anchor="start" x="2071.5" y="-128.8" font-family="Times,serif" font-size="14.00">in_memory : bool</text>
<polyline fill="none" stroke="black" points="1816,-121 2450,-121 "/>
<text text-anchor="start" x="1824" y="-105.8" font-family="Times,serif" font-size="14.00">create_collection(collection: Collection, progress_bar: bool)</text>
<text text-anchor="start" x="1824" y="-90.8" font-family="Times,serif" font-size="14.00">get_available_collections(): Optional[dict[str, Collection]]</text>
<text text-anchor="start" x="1824" y="-75.8" font-family="Times,serif" font-size="14.00">get_available_datasets(): list[Collection]</text>
<text text-anchor="start" x="1824" y="-60.8" font-family="Times,serif" font-size="14.00">get_collection(name)</text>
<text text-anchor="start" x="1824" y="-45.8" font-family="Times,serif" font-size="14.00">retrieve_from(query: str, collection_name: str, limit: int, threshold: int): list[str] | None</text>
<text text-anchor="start" x="1824" y="-30.8" font-family="Times,serif" font-size="14.00">save_metadata(collection: Collection)</text>
<text text-anchor="start" x="1824" y="-15.8" font-family="Times,serif" font-size="14.00">upload(document: Document, collection_name: str)</text>
</g>
<!-- src.agent.plan.Task -->
<g id="node15" class="node">
<title>src.agent.plan.Task</title>
<polygon fill="none" stroke="black" points="2531.5,-241.5 2531.5,-370.5 2650.5,-370.5 2650.5,-241.5 2531.5,-241.5"/>
<text text-anchor="start" x="2574.5" y="-355.3" font-family="Times,serif" font-size="14.00">Task</text>
<polyline fill="none" stroke="black" points="2531.5,-347.5 2650.5,-347.5 "/>
<text text-anchor="start" x="2539.5" y="-332.3" font-family="Times,serif" font-size="14.00">command : str</text>
<text text-anchor="start" x="2539.5" y="-317.3" font-family="Times,serif" font-size="14.00">output : str</text>
<text text-anchor="start" x="2539.5" y="-302.3" font-family="Times,serif" font-size="14.00">status</text>
<text text-anchor="start" x="2539.5" y="-287.3" font-family="Times,serif" font-size="14.00">thought : str</text>
<text text-anchor="start" x="2539.5" y="-272.3" font-family="Times,serif" font-size="14.00">tool</text>
<polyline fill="none" stroke="black" points="2531.5,-264.5 2650.5,-264.5 "/>
<text text-anchor="start" x="2588.5" y="-249.3" font-family="Times,serif" font-size="14.00"> </text>
</g>
<!-- src.agent.plan.TaskStatus -->
<g id="node16" class="node">
<title>src.agent.plan.TaskStatus</title>
<polygon fill="none" stroke="black" points="2468.5,-60.5 2468.5,-129.5 2563.5,-129.5 2563.5,-60.5 2468.5,-60.5"/>
<text text-anchor="start" x="2476.5" y="-114.3" font-family="Times,serif" font-size="14.00">TaskStatus</text>
<polyline fill="none" stroke="black" points="2468.5,-106.5 2563.5,-106.5 "/>
<text text-anchor="start" x="2496" y="-91.3" font-family="Times,serif" font-size="14.00">name</text>
<polyline fill="none" stroke="black" points="2468.5,-83.5 2563.5,-83.5 "/>
<text text-anchor="start" x="2513.5" y="-68.3" font-family="Times,serif" font-size="14.00"> </text>
</g>
<!-- src.agent.plan.TaskStatus&#45;&gt;src.agent.plan.Task -->
<g id="edge5" class="edge">
<title>src.agent.plan.TaskStatus&#45;&gt;src.agent.plan.Task</title>
<path fill="none" stroke="black" d="M2528.05,-129.58C2537.72,-156.53 2551.67,-195.41 2563.98,-229.71"/>
<polygon fill="black" stroke="black" points="2564.03,-229.85 2569.83,-234.15 2568.09,-241.15 2562.3,-236.85 2564.03,-229.85"/>
<text text-anchor="middle" x="2583.5" y="-211.8" font-family="Times,serif" font-size="14.00" fill="green">status</text>
</g>
<!-- src.agent.tools.base.Terminal -->
<g id="node17" class="node">
<title>src.agent.tools.base.Terminal</title>
<polygon fill="none" stroke="black" points="2768.5,-0.5 2768.5,-189.5 2945.5,-189.5 2945.5,-0.5 2768.5,-0.5"/>
<text text-anchor="start" x="2825" y="-174.3" font-family="Times,serif" font-size="14.00">Terminal</text>
<polyline fill="none" stroke="black" points="2768.5,-166.5 2945.5,-166.5 "/>
<text text-anchor="start" x="2776.5" y="-151.3" font-family="Times,serif" font-size="14.00">SHELLS : dict</text>
<text text-anchor="start" x="2776.5" y="-136.3" font-family="Times,serif" font-size="14.00">args_description : str</text>
<text text-anchor="start" x="2776.5" y="-121.3" font-family="Times,serif" font-size="14.00">name : str</text>
<text text-anchor="start" x="2776.5" y="-106.3" font-family="Times,serif" font-size="14.00">proc : Popen</text>
<text text-anchor="start" x="2776.5" y="-91.3" font-family="Times,serif" font-size="14.00">reader_output : Queue</text>
<text text-anchor="start" x="2776.5" y="-76.3" font-family="Times,serif" font-size="14.00">tool_description : str</text>
<text text-anchor="start" x="2776.5" y="-61.3" font-family="Times,serif" font-size="14.00">use_case : str</text>
<polyline fill="none" stroke="black" points="2768.5,-53.5 2945.5,-53.5 "/>
<text text-anchor="start" x="2790" y="-38.3" font-family="Times,serif" font-size="14.00">close()</text>
<text text-anchor="start" x="2790" y="-23.3" font-family="Times,serif" font-size="14.00">read()</text>
<text text-anchor="start" x="2790" y="-8.3" font-family="Times,serif" font-size="14.00">run(command: str)</text>
</g>
<!-- src.agent.tools.base.Tool -->
<g id="node18" class="node">
<title>src.agent.tools.base.Tool</title>
<polygon fill="none" stroke="black" points="2581.5,-24.5 2581.5,-165.5 2750.5,-165.5 2750.5,-24.5 2581.5,-24.5"/>
<text text-anchor="start" x="2651" y="-150.3" font-family="Times,serif" font-size="14.00">Tool</text>
<polyline fill="none" stroke="black" points="2581.5,-142.5 2750.5,-142.5 "/>
<text text-anchor="start" x="2589.5" y="-127.3" font-family="Times,serif" font-size="14.00">args_description : str</text>
<text text-anchor="start" x="2589.5" y="-112.3" font-family="Times,serif" font-size="14.00">name : str</text>
<text text-anchor="start" x="2589.5" y="-97.3" font-family="Times,serif" font-size="14.00">tool_description : str</text>
<text text-anchor="start" x="2589.5" y="-82.3" font-family="Times,serif" font-size="14.00">use_case : str</text>
<polyline fill="none" stroke="black" points="2581.5,-74.5 2750.5,-74.5 "/>
<text text-anchor="start" x="2592" y="-60.3" font-family="Times,serif" font-size="14.00">get_documentation()</text>
<text text-anchor="start" x="2592" y="-46.3" font-family="Times,serif" font-size="14.00">load_tool(path: str)</text>
<text text-anchor="start" x="2592" y="-32.3" font-family="Times,serif" font-style="italic" font-size="14.00">run</text>
<text text-anchor="start" x="2617" y="-32.3" font-family="Times,serif" font-size="14.00">()</text>
</g>
<!-- src.agent.tools.base.Tool&#45;&gt;src.agent.plan.Task -->
<g id="edge6" class="edge">
<title>src.agent.tools.base.Tool&#45;&gt;src.agent.plan.Task</title>
<path fill="none" stroke="black" d="M2641.03,-165.59C2633.62,-186.23 2625.48,-208.93 2617.95,-229.9"/>
<polygon fill="black" stroke="black" points="2617.89,-230.05 2619.63,-237.05 2613.84,-241.35 2612.1,-234.35 2617.89,-230.05"/>
<text text-anchor="middle" x="2639" y="-211.8" font-family="Times,serif" font-size="14.00" fill="green">tool</text>
</g>
<!-- src.agent.knowledge.collections.Topic -->
<g id="node19" class="node">
<title>src.agent.knowledge.collections.Topic</title>
<polygon fill="none" stroke="black" points="2963.5,-60.5 2963.5,-129.5 3052.5,-129.5 3052.5,-60.5 2963.5,-60.5"/>
<text text-anchor="start" x="2989" y="-114.3" font-family="Times,serif" font-size="14.00">Topic</text>
<polyline fill="none" stroke="black" points="2963.5,-106.5 3052.5,-106.5 "/>
<text text-anchor="start" x="2971.5" y="-91.3" font-family="Times,serif" font-size="14.00">name : str</text>
<polyline fill="none" stroke="black" points="2963.5,-83.5 3052.5,-83.5 "/>
<text text-anchor="start" x="3005.5" y="-68.3" font-family="Times,serif" font-size="14.00"> </text>
</g>
</g>
</svg>
